{"title":"The Descendants 2011 SCREENER XviD - ZOMBiES","uid":6959012,"size":950159506,"categoryP":"video","categoryS":"movies","magnet":"?xt=urn:btih:b13ae984d34d1f0b2c802e849700027a4a05e67a&amp;dn=The+Descendants+2011+SCREENER+XviD+-+ZOMBiES&amp;tr=udp%3A%2F%2Ftracker.openbittorrent.com%3A80&amp;tr=udp%3A%2F%2Fopen.demonii.com%3A1337&amp;tr=udp%3A%2F%2Ftracker.coppersurfer.tk%3A6969&amp;tr=udp%3A%2F%2Fexodus.desync.com%3A6969","seeders":0,"leechers":1,"uploader":"HeroMaster","files":-1,"time":1326702840,"description":"  Another Fine Release Brought to you from - ZOMBiES                  \n                                               \n\n********************************************************************************\n                 \n                 The Descendants 2011 SCREENER XviD - ZOMBiES\n                    \n********************************************************************************\n\n\nRelease Name : The Descendants 2011 SCREENER XviD - ZOMBiES\nRating : 8.0/10 &lt;a href=&quot;\nhttp://www.imdb.com/title/tt1033575/&quot; rel=&quot;nofollow&quot; target=&quot;_NEW&quot;&gt;\nhttp://www.imdb.com/title/tt1033575/&lt;/a&gt;\nGenre : Comedy, Drama\nStars : George Clooney, Shailene Woodley, Amara Miller, Nick Krause\nDirector : Alexander Payne\nWriters : Alexander Payne, Nat Faxon\nRelease Date : 9 Dec 2011\nMovie Runtime : 1 hr 55 mins\nRated Under : R\nMovie Plot : A land baron tries to re-connect with his two daughters after his wife suffers a boating accident.\n\n\n\nFormat                           : AVI\nFormat/Info                      : Audio Video Interleave\nFile size                        : 906 MiB\nDuration                         : 1h 55mn\nOverall bit rate                 : 1 097 Kbps\nWriting library                  : VirtualDub build 32842/release\n\nVideo\nID                               : 0\nFormat                           : MPEG-4 Visual\nFormat profile                   : Advanced Simple@L5\nFormat settings, BVOP            : 2\nFormat settings, QPel            : No\nFormat settings, GMC             : No warppoints\nFormat settings, Matrix          : Default (H.263)\nMuxing mode                      : Packed bitstream\nCodec ID                         : XVID\nCodec ID/Hint                    : XviD\nDuration                         : 1h 55mn\nBit rate                         : 959 Kbps\nWidth                            : 718 pixels\nHeight                           : 360 pixels\nDisplay aspect ratio             : 1.994\nFrame rate                       : 25.000 fps\nColor space                      : YUV\nChroma subsampling               : 4:2:0\nBit depth                        : 8 bits\nScan type                        : Progressive\nCompression mode                 : Lossy\nBits/(Pixel*Frame)               : 0.148\nStream size                      : 792 MiB (87%)\nWriting library                  : XviD 64\n\nAudio\nID                               : 1\nFormat                           : MPEG Audio\nFormat version                   : Version 1\nFormat profile                   : Layer 3\nMode                             : Joint stereo\nCodec ID                         : 55\nCodec ID/Hint                    : MP3\nDuration                         : 1h 55mn\nBit rate mode                    : Constant\nBit rate                         : 128 Kbps\nChannel(s)                       : 2 channels\nSampling rate                    : 48.0 KHz\nCompression mode                 : Lossy\nStream size                      : 106 MiB (12%)\nAlignment                        : Split accross interleaves\nInterleave, duration             : 40 ms (1.00 video frame)\nInterleave, preload duration     : 500 ms\n\n\nGREETS:\n\nFLAWL3SS,ViSiON,Rx,ELEKTRI4KA,26K,DTRG,3LT0N,RemixHD\nAnd to all the other p2p grps past and present .\n\nLooking for these,syncers,cammers,audio,silver supplier.....Have anything to offer????......\nYou know how to find us .\n\n\nPoster:\n\n &lt;a href=&quot;\nhttp://i.imgur.com/yahtB.jpg&quot; rel=&quot;nofollow&quot; target=&quot;_NEW&quot;&gt;\nhttp://i.imgur.com/yahtB.jpg&lt;/a&gt;\n\n\nScreens:\n\n &lt;a href=&quot;\nhttp://i.imgur.com/rz3Pe.jpg&quot; rel=&quot;nofollow&quot; target=&quot;_NEW&quot;&gt;\nhttp://i.imgur.com/rz3Pe.jpg&lt;/a&gt;\n\n &lt;a href=&quot;\nhttp://i.imgur.com/ilgAL.jpg&quot; rel=&quot;nofollow&quot; target=&quot;_NEW&quot;&gt;\nhttp://i.imgur.com/ilgAL.jpg&lt;/a&gt;\n\n &lt;a href=&quot;\nhttp://i.imgur.com/nkfMa.jpg&quot; rel=&quot;nofollow&quot; target=&quot;_NEW&quot;&gt;\nhttp://i.imgur.com/nkfMa.jpg&lt;/a&gt;\n\n\nENJOY!","torrent":{"xt":"urn:btih:b13ae984d34d1f0b2c802e849700027a4a05e67a","amp;dn":"The+Descendants+2011+SCREENER+XviD+-+ZOMBiES","amp;tr":["udp%3A%2F%2Ftracker.openbittorrent.com%3A80","udp%3A%2F%2Fopen.demonii.com%3A1337","udp%3A%2F%2Ftracker.coppersurfer.tk%3A6969","udp%3A%2F%2Fexodus.desync.com%3A6969"],"infoHash":"b13ae984d34d1f0b2c802e849700027a4a05e67a","infoHashBuffer":{"type":"Buffer","data":[177,58,233,132,211,77,31,11,44,128,46,132,151,0,2,122,74,5,230,122]},"announce":[],"urlList":[]}}